{"title":"Category.7.2005.DVDrip.x264.AC3-playSD","uid":12336188,"size":3024590627,"categoryP":"video","categoryS":"movies","magnet":"?xt=urn:btih:85f609bd9e1dfa6f6ccb22bf6a78e79cbd08cbbf&amp;dn=Category.7.2005.DVDrip.x264.AC3-playSD&amp;tr=udp%3A%2F%2Ftracker.openbittorrent.com%3A80&amp;tr=udp%3A%2F%2Fopen.demonii.com%3A1337&amp;tr=udp%3A%2F%2Ftracker.coppersurfer.tk%3A6969&amp;tr=udp%3A%2F%2Fexodus.desync.com%3A6969","seeders":0,"leechers":0,"uploader":"TvTeam","files":4,"time":1441239039,"description":"------------------------------------------------------------------------\n\n &lt;a href=&quot; https://www.torrenting.com&quot; rel=&quot;nofollow&quot; target=&quot;_NEW&quot;&gt; https://www.torrenting.com&lt;/a&gt;\n\nSign up is OPEN - for time being. Come and have fun.\n\n------------------------------------------------------------------------General\nUnique ID                                : 229698451708909882798471611354859464488 (0xACCE5008AFF21F9595A4AE3D28686728)\nComplete name                            : F:UploadCategory.7.2005.DVDrip.x264.AC3-playSDCategory.7.2005.DVDrip.x264.AC3-playSD.mkv\nFormat                                   : Matroska\nFormat version                           : Version 4 / Version 2\nFile size                                : 2.80 GiB\nDuration                                 : 2h 43mn\nOverall bit rate                         : 2 455 Kbps\nEncoded date                             : UTC 2015-08-26 17:30:52\nWriting application                      : mkvmerge v8.2.0 ('World of Adventure') 64bit\nWriting library                          : libebml v1.3.1 + libmatroska v1.4.2\nDURATION                                 : 02:43:22.000000000\nNUMBER_OF_FRAMES                         : 245050\nNUMBER_OF_BYTES                          : 2535897446\n_STATISTICS_WRITING_APP                  : mkvmerge v8.2.0 ('World of Adventure') 64bit\n_STATISTICS_WRITING_DATE_UTC             : 2015-08-26 17:30:52\n_STATISTICS_TAGS                         : BPS DURATION NUMBER_OF_FRAMES NUMBER_OF_BYTES\n\nVideo\nID                                       : 2\nFormat                                   : AVC\nFormat/Info                              : Advanced Video Codec\nFormat profile                           : High@L3\nFormat settings, CABAC                   : Yes\nFormat settings, ReFrames                : 4 frames\nCodec ID                                 : V_MPEG4/ISO/AVC\nDuration                                 : 2h 43mn\nBit rate                                 : 2 023 Kbps\nWidth                                    : 720 pixels\nHeight                                   : 404 pixels\nDisplay aspect ratio                     : 16:9\nFrame rate mode                          : Constant\nFrame rate                               : 25.000 fps\nColor space                              : YUV\nChroma subsampling                       : 4:2:0\nBit depth                                : 8 bits\nScan type                                : Progressive\nBits/(Pixel*Frame)                       : 0.278\nStream size                              : 2.31 GiB (82%)\nWriting library                          : x264 core 125 r2200 999b753\nEncoding settings                        : cabac=1 / ref=5 / deblock=1:-3:-3 / analyse=0x3:0x113 / me=umh / subme=8 / psy=1 / psy_rd=0.00:0.00 / mixed_ref=1 / me_range=16 / chroma_me=1 / trellis=2 / 8x8dct=1 / cqm=0 / deadzone=21,11 / fast_pskip=1 / chroma_qp_offset=0 / threads=6 / lookahead_threads=1 / sliced_threads=0 / nr=0 / decimate=1 / interlaced=0 / bluray_compat=0 / constrained_intra=0 / bframes=5 / b_pyramid=1 / b_adapt=2 / b_bias=0 / direct=3 / weightb=1 / open_gop=0 / weightp=2 / keyint=250 / keyint_min=25 / scenecut=40 / intra_refresh=0 / rc_lookahead=50 / rc=crf / mbtree=1 / crf=19.0 / qcomp=0.60 / qpmin=0 / qpmax=69 / qpstep=4 / ip_ratio=1.40 / aq=1:1.00\nDefault                                  : Yes\nForced                                   : No\n\nAudio\nID                                       : 1\nFormat                                   : AC-3\nFormat/Info                              : Audio Coding 3\nMode extension                           : CM (complete main)\nFormat settings, Endianness              : Big\nCodec ID                                 : A_AC3\nDuration                                 : 2h 43mn\nBit rate mode                            : Constant\nBit rate                                 : 384 Kbps\nChannel(s)                               : 6 channels\nChannel positions                        : Front: L C R, Side: L R, LFE\nSampling rate                            : 48.0 KHz\nCompression mode                         : Lossy\nStream size                              : 449 MiB (16%)\nDefault                                  : Yes\nForced                                   : No","torrent":{"xt":"urn:btih:85f609bd9e1dfa6f6ccb22bf6a78e79cbd08cbbf","amp;dn":"Category.7.2005.DVDrip.x264.AC3-playSD","amp;tr":["udp%3A%2F%2Ftracker.openbittorrent.com%3A80","udp%3A%2F%2Fopen.demonii.com%3A1337","udp%3A%2F%2Ftracker.coppersurfer.tk%3A6969","udp%3A%2F%2Fexodus.desync.com%3A6969"],"infoHash":"85f609bd9e1dfa6f6ccb22bf6a78e79cbd08cbbf","infoHashBuffer":{"type":"Buffer","data":[133,246,9,189,158,29,250,111,108,203,34,191,106,120,231,156,189,8,203,191]},"announce":[],"urlList":[]}}